Coordinates
version=1
nRows=34
nColumns=38
inDegrees=no

Units are S.I. units (second, meters, Newtons, ...)
If the header above contains a line with 'inDegrees', this indicates whether rotational values are in degrees (yes) or radians (no).

endheader
time	pelvis_tilt	pelvis_list	pelvis_rotation	pelvis_tx	pelvis_ty	pelvis_tz	hip_flexion_r	hip_adduction_r	hip_rotation_r	knee_angle_r	ankle_angle_r	subtalar_angle_r	mtp_angle_r	hip_flexion_l	hip_adduction_l	hip_rotation_l	knee_angle_l	ankle_angle_l	subtalar_angle_l	mtp_angle_l	lumbar_extension	lumbar_bending	lumbar_rotation	arm_flex_r	arm_add_r	arm_rot_r	elbow_flex_r	pro_sup_r	wrist_flex_r	wrist_dev_r	arm_flex_l	arm_add_l	arm_rot_l	elbow_flex_l	pro_sup_l	wrist_flex_l	wrist_dev_l
15	2.13816	1.44485	-0.501252	0.765831	0.292578	0.97955	0.186555	0.0740194	-0.316056	0.35533	-0.0120522	0	0	-0.124897	-0.164279	-0.00755006	0.422396	0.223026	0	0	-0.116351	0.156749	-0.0401527	0.686739	-0.224726	0.442272	1.09392	1.5708	0	0	0.887289	-0.166089	0.700626	0.731561	1.5708	0	0
15.01	2.11746	1.44502	-0.480758	0.763682	0.288167	0.978958	0.194299	0.0721555	-0.316831	0.355718	-0.0171172	0	0	-0.128167	-0.162813	-0.00764938	0.414073	0.213882	0	0	-0.113697	0.157632	-0.0409401	0.687233	-0.228709	0.441956	1.0942	1.5708	0	0	0.886875	-0.161727	0.698787	0.732199	1.5708	0	0
15.02	2.09262	1.44504	-0.456187	0.761493	0.283586	0.978277	0.202597	0.0704792	-0.318289	0.356063	-0.022289	0	0	-0.130926	-0.161594	-0.0085319	0.404111	0.214002	0	0	-0.110932	0.158825	-0.0417453	0.688194	-0.233005	0.442178	1.09477	1.5708	0	0	0.886791	-0.157192	0.697016	0.732363	1.5708	0	0
15.03	2.06944	1.4449	-0.433802	0.759315	0.278896	0.977606	0.210424	0.0689309	-0.319151	0.355626	-0.0278475	0	0	-0.134603	-0.160075	-0.0112743	0.389257	0.216998	0	0	-0.108755	0.159886	-0.0420714	0.689487	-0.23724	0.441635	1.09486	1.5708	0	0	0.886632	-0.152635	0.694359	0.732732	1.5708	0	0
15.04	2.04525	1.44482	-0.410258	0.757052	0.274027	0.976893	0.218463	0.0671306	-0.320282	0.354812	-0.0335916	0	0	-0.138086	-0.157997	-0.0143181	0.369739	0.218724	0	0	-0.106764	0.160856	-0.0427003	0.691164	-0.241244	0.440479	1.09446	1.5708	0	0	0.886502	-0.147967	0.691271	0.73309	1.5708	0	0
15.05	2.02046	1.44504	-0.385934	0.75469	0.268979	0.976137	0.226977	0.064718	-0.321872	0.354175	-0.0394584	0	0	-0.140901	-0.155176	-0.0165374	0.348525	0.221034	0	0	-0.104909	0.161495	-0.0436495	0.693272	-0.245296	0.440039	1.09409	1.5708	0	0	0.886469	-0.142964	0.686594	0.733329	1.5708	0	0
15.06	1.99664	1.44549	-0.362191	0.752227	0.263737	0.975356	0.23568	0.0616978	-0.324095	0.353618	-0.045658	0	0	-0.142602	-0.152074	-0.0188027	0.328892	0.224087	0	0	-0.103512	0.161745	-0.045134	0.696196	-0.24951	0.440601	1.09365	1.5708	0	0	0.886762	-0.137568	0.679837	0.733993	1.5708	0	0
15.07	1.9766	1.44605	-0.342174	0.749718	0.258347	0.97462	0.243846	0.058382	-0.326113	0.352557	-0.0520309	0	0	-0.1437	-0.148496	-0.0214148	0.311571	0.227463	0	0	-0.102983	0.161543	-0.0467388	0.70003	-0.253341	0.440612	1.09176	1.5708	0	0	0.887405	-0.132116	0.67261	0.734372	1.5708	0	0
15.08	1.96339	1.44686	-0.328987	0.747192	0.252828	0.974	0.251002	0.0546107	-0.327634	0.350711	-0.0586738	0	0	-0.144562	-0.14406	-0.023451	0.295768	0.229934	0	0	-0.103644	0.160564	-0.0484057	0.704394	-0.256891	0.441068	1.08944	1.5708	0	0	0.888376	-0.126805	0.665133	0.734667	1.5708	0	0
15.09	1.95613	1.44808	-0.321985	0.744675	0.247206	0.973501	0.257418	0.0503182	-0.328476	0.348377	-0.0657626	0	0	-0.145019	-0.138925	-0.0248635	0.281018	0.230656	0	0	-0.105362	0.158732	-0.0499537	0.708858	-0.260045	0.441714	1.08727	1.5708	0	0	0.889426	-0.121432	0.656479	0.735978	1.5708	0	0
15.1	1.95352	1.44969	-0.319991	0.742169	0.241496	0.973102	0.263085	0.0457974	-0.328403	0.345127	-0.0736461	0	0	-0.145113	-0.133084	-0.0250121	0.267274	0.229964	0	0	-0.107887	0.156157	-0.0510736	0.713452	-0.262672	0.441591	1.08471	1.5708	0	0	0.890819	-0.11612	0.64863	0.737223	1.5708	0	0
15.11	1.94968	1.45167	-0.317409	0.739706	0.235718	0.97271	0.268675	0.0414357	-0.32694	0.340759	-0.0824312	0	0	-0.144368	-0.126562	-0.0234901	0.254609	0.228429	0	0	-0.110378	0.153129	-0.0514893	0.718572	-0.265443	0.442109	1.08178	1.5708	0	0	0.892566	-0.110809	0.642023	0.737757	1.5708	0	0
15.12	1.94063	1.45414	-0.310643	0.737329	0.229897	0.972282	0.274492	0.0375911	-0.323506	0.335288	-0.090561	0	0	-0.142488	-0.119569	-0.0214223	0.242822	0.226357	0	0	-0.112251	0.149683	-0.0508039	0.724054	-0.268505	0.442859	1.07859	1.5708	0	0	0.894465	-0.105351	0.635955	0.737555	1.5708	0	0
15.13	1.92496	1.45689	-0.298532	0.735046	0.224071	0.97182	0.281245	0.0337692	-0.319636	0.329921	-0.0978636	0	0	-0.139493	-0.112518	-0.0202638	0.232083	0.224186	0	0	-0.113372	0.14612	-0.0489586	0.729593	-0.271797	0.443633	1.07533	1.5708	0	0	0.896244	-0.0995102	0.628946	0.737489	1.5708	0	0
15.14	1.90296	1.45957	-0.281201	0.732882	0.218272	0.971309	0.288581	0.0303775	-0.315915	0.324658	-0.104139	0	0	-0.135609	-0.105784	-0.020566	0.222188	0.222125	0	0	-0.113824	0.142687	-0.0460864	0.734848	-0.275524	0.445279	1.07253	1.5708	0	0	0.897937	-0.0934286	0.621315	0.737526	1.5708	0	0
15.15	1.87563	1.46203	-0.259526	0.730829	0.212535	0.970743	0.296015	0.0275548	-0.312134	0.318967	-0.109194	0	0	-0.131133	-0.0996418	-0.0231406	0.212996	0.220651	0	0	-0.113642	0.139519	-0.0423192	0.740281	-0.279331	0.448016	1.06916	1.5708	0	0	0.899334	-0.0876029	0.613786	0.737421	1.5708	0	0
15.16	1.84569	1.46441	-0.235804	0.72885	0.206857	0.970143	0.303368	0.0248308	-0.309119	0.313245	-0.112428	0	0	-0.126611	-0.0938221	-0.0268333	0.203935	0.219005	0	0	-0.113098	0.136396	-0.0381447	0.746107	-0.282949	0.451633	1.06459	1.5708	0	0	0.900504	-0.0821593	0.606272	0.737102	1.5708	0	0
15.17	1.81656	1.46665	-0.212998	0.726913	0.20124	0.96956	0.309974	0.0221002	-0.307363	0.306876	-0.113943	0	0	-0.122658	-0.0883079	-0.0303091	0.194251	0.216748	0	0	-0.112602	0.133299	-0.0339757	0.752351	-0.286474	0.456069	1.05902	1.5708	0	0	0.901646	-0.0769316	0.598774	0.736219	1.5708	0	0
15.18	1.79127	1.46845	-0.193601	0.725028	0.195679	0.969027	0.315255	0.0197645	-0.30648	0.299673	-0.113203	0	0	-0.118759	-0.0834666	-0.0335866	0.185522	0.214858	0	0	-0.112569	0.130486	-0.0303029	0.759037	-0.29025	0.461978	1.05334	1.5708	0	0	0.902756	-0.0720824	0.591253	0.73517	1.5708	0	0
15.19	1.77096	1.46974	-0.17883	0.723221	0.190192	0.968584	0.319361	0.0178711	-0.306343	0.292323	-0.109622	0	0	-0.114659	-0.0793027	-0.0368701	0.178421	0.213315	0	0	-0.11316	0.128006	-0.027022	0.765613	-0.293658	0.467339	1.04749	1.5708	0	0	0.903826	-0.0673889	0.583306	0.734669	1.5708	0	0
15.2	1.75852	1.47058	-0.171733	0.721486	0.184816	0.968291	0.321836	0.0164469	-0.306042	0.284166	-0.103366	0	0	-0.110628	-0.0757076	-0.0409901	0.172937	0.212242	0	0	-0.114641	0.125842	-0.0239583	0.77195	-0.29652	0.471646	1.04146	1.5708	0	0	0.904701	-0.0629029	0.575143	0.7349	1.5708	0	0
15.21	1.7529	1.47108	-0.171416	0.719838	0.179563	0.968156	0.322911	0.0154948	-0.305643	0.275453	-0.0944541	0	0	-0.106854	-0.0724965	-0.045154	0.168684	0.2104	0	0	-0.11681	0.12389	-0.0208788	0.777565	-0.299018	0.475432	1.03633	1.5708	0	0	0.905217	-0.0588079	0.567252	0.735253	1.5708	0	0
15.22	1.75444	1.47088	-0.178192	0.718298	0.174434	0.968193	0.322424	0.0156075	-0.305704	0.265965	-0.0845215	0	0	-0.104025	-0.0698955	-0.0480093	0.164427	0.207159	0	0	-0.119785	0.122501	-0.0176664	0.782587	-0.301817	0.480301	1.03266	1.5708	0	0	0.90533	-0.055015	0.559547	0.73596	1.5708	0	0
15.23	1.76268	1.47003	-0.191798	0.716916	0.169423	0.96843	0.320512	0.0167617	-0.305599	0.255864	-0.0748053	0	0	-0.102034	-0.0679688	-0.0505241	0.160567	0.203237	0	0	-0.123606	0.12148	-0.0140569	0.787067	-0.304589	0.484239	1.02929	1.5708	0	0	0.905105	-0.0514394	0.551836	0.737161	1.5708	0	0
15.24	1.77418	1.46909	-0.209005	0.715679	0.164511	0.968848	0.318088	0.01808	-0.305254	0.245804	-0.0658551	0	0	-0.100271	-0.0662432	-0.0537326	0.157379	0.198684	0	0	-0.127817	0.120257	-0.00996531	0.790662	-0.306367	0.485249	1.02575	1.5708	0	0	0.904423	-0.0480917	0.544209	0.738795	1.5708	0	0
15.25	1.78591	1.46834	-0.226661	0.714556	0.159692	0.969406	0.316154	0.018916	-0.306212	0.23732	-0.0579387	0	0	-0.0982611	-0.0644863	-0.0575405	0.154886	0.193643	0	0	-0.13194	0.118668	-0.00555305	0.793274	-0.307894	0.485823	1.0229	1.5708	0	0	0.903353	-0.0449723	0.537194	0.740354	1.5708	0	0
15.26	1.79769	1.46733	-0.244415	0.713572	0.15504	0.970079	0.314498	0.0199046	-0.309614	0.230912	-0.051818	0	0	-0.096405	-0.0631792	-0.0612232	0.152369	0.187911	0	0	-0.135816	0.117161	-0.000973037	0.794808	-0.309337	0.486657	1.02072	1.5708	0	0	0.901865	-0.0419909	0.530644	0.741587	1.5708	0	0
15.27	1.80649	1.4661	-0.259355	0.712696	0.150507	0.970787	0.313746	0.020797	-0.314998	0.227556	-0.0471469	0	0	-0.0939593	-0.0622729	-0.064925	0.150744	0.182343	0	0	-0.139206	0.115841	0.00375574	0.795891	-0.310623	0.488006	1.0184	1.5708	0	0	0.900277	-0.0390228	0.524619	0.742998	1.5708	0	0
15.28	1.81295	1.46484	-0.272012	0.711898	0.146063	0.97153	0.314017	0.0211294	-0.322469	0.227818	-0.0437528	0	0	-0.0912334	-0.0615695	-0.0686621	0.149514	0.176719	0	0	-0.142153	0.11456	0.00856499	0.797214	-0.311704	0.489436	1.01488	1.5708	0	0	0.898555	-0.0360908	0.51904	0.7442	1.5708	0	0
15.29	1.817	1.46326	-0.282059	0.711199	0.141719	0.972301	0.31496	0.02141	-0.331152	0.231557	-0.0409129	0	0	-0.0880902	-0.0613698	-0.0725874	0.148863	0.17145	0	0	-0.144637	0.113585	0.0133328	0.798038	-0.312856	0.491366	1.01183	1.5708	0	0	0.896945	-0.0333829	0.514953	0.744812	1.5708	0	0
15.3	1.81869	1.46153	-0.289482	0.710553	0.137512	0.97307	0.316531	0.0213738	-0.341322	0.238562	-0.0380606	0	0	-0.0848486	-0.0614314	-0.0764888	0.148195	0.1657	0	0	-0.146495	0.112869	0.0177946	0.798568	-0.313969	0.493687	1.009	1.5708	0	0	0.895084	-0.0308825	0.511144	0.745113	1.5708	0	0
15.31	1.82019	1.45956	-0.296467	0.709964	0.133416	0.973815	0.318059	0.0212666	-0.351784	0.247635	-0.0353417	0	0	-0.0818177	-0.0618647	-0.0801313	0.147507	0.160155	0	0	-0.148108	0.112356	0.0221703	0.79882	-0.315174	0.495869	1.0066	1.5708	0	0	0.893367	-0.02863	0.508209	0.744938	1.5708	0	0
15.32	1.82198	1.45763	-0.303762	0.709414	0.129392	0.974501	0.319817	0.0207452	-0.361202	0.259683	-0.0315019	0	0	-0.0793945	-0.0622202	-0.0830625	0.14584	0.154357	0	0	-0.14963	0.111754	0.0265404	0.798937	-0.316347	0.497909	1.00485	1.5708	0	0	0.891851	-0.0263589	0.505212	0.745001	1.5708	0	0
15.33	1.82545	1.45564	-0.312279	0.708896	0.125456	0.975144	0.320376	0.0204935	-0.367271	0.27136	-0.0276038	0	0	-0.0773622	-0.0626387	-0.085543	0.144028	0.14866	0	0	-0.1512	0.111153	0.0304326	0.799031	-0.317358	0.499539	1.00347	1.5708	0	0	0.89055	-0.0244169	0.503002	0.745565	1.5708	0	0
